HIERARCHY
ROOT Hips
{
	OFFSET 0.000000 0.000000 0.000000
	CHANNELS 6 Xposition Yposition Zposition Xrotation Yrotation Zrotation
	JOINT LeftUpLeg_virtual
	{
		OFFSET 0.000000 0.000000 0.000000
		CHANNELS 3 Xrotation Yrotation Zrotation
		JOINT LeftUpLeg
		{
			OFFSET 13.026900 -6.336304 -1.092800
			CHANNELS 3 Xrotation Yrotation Zrotation
			JOINT LeftLeg
			{
				OFFSET 0.524474 -46.096886 9.782700
				CHANNELS 3 Xrotation Yrotation Zrotation
				JOINT LeftFoot
				{
					OFFSET -0.524474 -53.427422 -12.948200
					CHANNELS 3 Xrotation Yrotation Zrotation
					JOINT LeftToeBase
					{
						OFFSET 0.192200 -14.009700 16.364100
						CHANNELS 3 Xrotation Yrotation Zrotation
						JOINT LeftToe_End
						{
							OFFSET -1.784700 -0.561700 9.474800
							CHANNELS 3 Xrotation Yrotation Zrotation
							End Site
							{
								OFFSET 0 0 0
							}
						}
					}
				}
			}
		}
	}
	JOINT RightUpLeg_virtual
	{
		OFFSET 0.000000 0.000000 0.000000
		CHANNELS 3 Xrotation Yrotation Zrotation
		JOINT RightUpLeg
		{
			OFFSET -12.883000 -6.336304 -1.092800
			CHANNELS 3 Xrotation Yrotation Zrotation
			JOINT RightLeg
			{
				OFFSET -0.524587 -46.096825 9.782800
				CHANNELS 3 Xrotation Yrotation Zrotation
				JOINT RightFoot
				{
					OFFSET 0.524587 -53.427383 -12.948300
					CHANNELS 3 Xrotation Yrotation Zrotation
					JOINT RightToeBase
					{
						OFFSET -0.192200 -14.009700 16.364100
						CHANNELS 3 Xrotation Yrotation Zrotation
						JOINT RightToe_End
						{
							OFFSET 1.784700 -0.561700 9.474800
							CHANNELS 3 Xrotation Yrotation Zrotation
							End Site
							{
								OFFSET 0 0 0
							}
						}
					}
				}
			}
		}
	}
	JOINT Spine_virtual
	{
		OFFSET 0.000000 0.000000 0.000000
		CHANNELS 3 Xrotation Yrotation Zrotation
		JOINT Spine
		{
			OFFSET 0.072000 7.257294 -0.789700
			CHANNELS 3 Xrotation Yrotation Zrotation
			JOINT Spine1
			{
				OFFSET 0.000000 12.508769 -0.658067
				CHANNELS 3 Xrotation Yrotation Zrotation
				JOINT Spine1_split
				{
					OFFSET 0.000000 12.508769 -0.658067
					CHANNELS 3 Xrotation Yrotation Zrotation
					JOINT Spine2
					{
						OFFSET 0.000000 12.508769 -0.658067
						CHANNELS 3 Xrotation Yrotation Zrotation
						JOINT Neck_virtual
						{
							OFFSET 0.000000 0.000000 0.000000
							CHANNELS 3 Xrotation Yrotation Zrotation
							JOINT Neck
							{
								OFFSET 0.000000 14.033295 7.520400
								CHANNELS 3 Xrotation Yrotation Zrotation
								JOINT Head
								{
									OFFSET 0.000000 8.198502 5.703100
									CHANNELS 3 Xrotation Yrotation Zrotation
									JOINT HeadTop_End
									{
										OFFSET 0.000000 17.760803 13.332701
										CHANNELS 3 Xrotation Yrotation Zrotation
										End Site
										{
											OFFSET 0 0 0
										}
									}
								}
							}
						}
						JOINT LeftShoulder_virtual
						{
							OFFSET 0.000000 0.000000 0.000000
							CHANNELS 3 Xrotation Yrotation Zrotation
							JOINT LeftShoulder
							{
								OFFSET 6.292450 5.785301 -0.669000
								CHANNELS 3 Xrotation Yrotation Zrotation
								JOINT LeftShoulder_split
								{
									OFFSET 6.292450 5.785301 -0.669000
									CHANNELS 3 Xrotation Yrotation Zrotation
									JOINT LeftArm
									{
										OFFSET 13.907140 -6.093903 1.965100
										CHANNELS 3 Xrotation Yrotation Zrotation
										JOINT LeftForeArm
										{
											OFFSET 34.140198 0.000000 0.000000
											CHANNELS 3 Xrotation Yrotation Zrotation
											JOINT LeftHand
											{
												OFFSET 40.960209 0.000000 0.000000
												CHANNELS 3 Xrotation Yrotation Zrotation
												End Site
												{
													OFFSET 0 0 0
												}
											}
										}
									}
								}
							}
						}
						JOINT RightShoulder_virtual
						{
							OFFSET 0.000000 0.000000 0.000000
							CHANNELS 3 Xrotation Yrotation Zrotation
							JOINT RightShoulder
							{
								OFFSET -6.292450 5.785301 -0.669000
								CHANNELS 3 Xrotation Yrotation Zrotation
								JOINT RightShoulder_split
								{
									OFFSET -6.292450 5.785301 -0.669000
									CHANNELS 3 Xrotation Yrotation Zrotation
									JOINT RightArm
									{
										OFFSET -13.907140 -6.093903 1.965100
										CHANNELS 3 Xrotation Yrotation Zrotation
										JOINT RightForeArm
										{
											OFFSET -34.140198 0.000000 0.000000
											CHANNELS 3 Xrotation Yrotation Zrotation
											JOINT RightHand
											{
												OFFSET -40.960209 0.000000 0.000000
												CHANNELS 3 Xrotation Yrotation Zrotation
												End Site
												{
													OFFSET 0 0 0
												}
											}
										}
									}
								}
							}
						}
					}
				}
			}
		}
	}
}
MOTION
Frames: 8
Frame Time: 0.03333333
1.597771 95.003532 1.925613 0.000000 0.000000 0.000000 7.001926 -55.069152 8.514592 -61.435953 30.477482 41.468302 43.388995 -16.206728 1.648862 3.738364 0.368474 -9.857013 -0.307391 -3.971019 0.464031 0.000000 0.000000 0.000000 6.181127 -55.762457 9.046237 -27.820184 -0.525204 -26.563166 40.848418 4.081830 -7.388715 -17.235984 -1.568027 26.643052 1.707654 2.146915 2.278709 0.000000 0.000000 0.000000 9.636410 -49.322114 10.326567 13.810233 3.831699 -3.101322 2.934001 6.806296 -4.347899 0.310872 -4.639226 1.449603 0.000000 0.000000 0.000000 -3.606286 5.908053 -3.259757 -0.569305 11.014820 -0.345769 -2.084433 26.967035 -4.446319 0.000000 0.000000 0.000000 -4.668086 5.574228 -3.413295 -0.699220 -7.850636 -2.779110 -0.302640 -3.095124 2.933596 -10.898529 6.075642 -45.296735 -21.017484 -28.755482 -16.932256 0.000000 0.000000 0.000000 -5.091345 5.573185 -2.872336 -2.225817 21.527937 0.804395 -5.143371 -1.978002 3.057053 3.572702 -29.796977 59.527223 -19.479611 38.765169 19.100880 0.000000 0.000000 0.000000 
1.187306 94.848679 1.770931 0.000000 0.000000 0.000000 6.982813 -55.130661 8.804266 -61.584045 30.723758 41.597693 43.627557 -16.466770 1.681937 4.174173 0.330289 -10.107838 0.117766 -3.913330 0.184631 0.000000 0.000000 0.000000 6.027007 -55.657446 9.143895 -28.260034 -0.598540 -26.816894 40.963096 3.945900 -7.303194 -17.076574 -1.551123 26.285261 1.811013 2.137746 2.330287 0.000000 0.000000 0.000000 9.166069 -49.255701 10.073868 13.866519 3.580365 -3.391385 2.881271 6.778348 -4.359844 -0.152822 -4.250035 1.047295 0.000000 0.000000 0.000000 -3.691862 5.937922 -3.261091 -0.637368 11.336290 -0.488159 -2.046626 27.041045 -4.282972 0.000000 0.000000 0.000000 -4.735456 5.561615 -3.391229 -0.578581 -8.027530 -2.135093 -0.798613 -2.395024 2.116456 -11.569134 6.058058 -45.278765 -21.530466 -29.741943 -17.511883 0.000000 0.000000 0.000000 -4.995606 5.540830 -2.800809 -2.212229 21.148648 0.870238 -6.069205 -1.437046 3.160712 5.497771 -30.059799 60.254720 -19.532722 39.096256 19.195789 0.000000 0.000000 0.000000 
0.666935 94.795853 1.631527 0.000000 0.000000 0.000000 6.990877 -55.358082 8.940716 -61.599639 30.694706 41.905232 43.723900 -16.633454 1.718765 4.682052 0.283922 -10.522116 0.454707 -3.836649 -0.241451 0.000000 0.000000 0.000000 5.758048 -55.838094 9.038076 -28.663510 -0.876303 -26.737257 41.065963 3.712488 -7.160313 -17.171400 -1.762770 25.500431 1.952505 2.117159 2.307807 0.000000 0.000000 0.000000 8.735431 -49.435909 9.696303 13.866717 3.342553 -3.701118 2.848663 6.824002 -4.339957 -0.378540 -3.850953 0.966167 0.000000 0.000000 0.000000 -3.757188 6.077343 -3.227247 -0.465669 11.686650 -0.667182 -1.796679 26.374326 -4.056997 0.000000 0.000000 0.000000 -4.795734 5.655497 -3.237410 -0.454019 -8.339511 -1.523458 -0.775122 -1.744911 0.999304 -11.893682 6.270621 -44.782811 -22.533489 -31.824488 -18.881652 0.000000 0.000000 0.000000 -4.894147 5.616867 -2.701286 -2.005742 20.604072 0.678134 -6.600608 -0.924675 3.093371 7.932421 -30.908396 61.673569 -20.123470 41.169717 19.700794 0.000000 0.000000 0.000000 
0.290862 94.893242 1.433403 0.000000 0.000000 0.000000 6.997174 -55.861112 8.887557 -61.357194 30.251526 42.155798 43.560682 -16.690363 1.746630 5.237349 0.261316 -11.144025 0.340710 -3.739315 -0.659191 0.000000 0.000000 0.000000 5.530467 -56.188828 8.858340 -29.129227 -1.324659 -26.327447 41.159608 3.495205 -6.964958 -17.366284 -2.031846 24.484193 2.185909 2.093902 2.205336 0.000000 0.000000 0.000000 8.523197 -50.084087 9.370336 13.790547 3.132209 -3.920665 2.862996 6.879954 -4.273700 -0.188111 -3.481043 1.179365 0.000000 0.000000 0.000000 -3.778780 6.253106 -3.142318 -0.219654 12.100078 -0.881846 -1.365954 25.196064 -3.901325 0.000000 0.000000 0.000000 -4.823972 5.783657 -3.013430 -0.351013 -8.746751 -1.186051 -0.137734 -1.263477 -0.104360 -11.806061 6.595255 -43.937237 -23.804476 -34.417702 -20.737090 0.000000 0.000000 0.000000 -4.822493 5.739053 -2.576517 -1.675779 19.994310 0.353597 -6.885806 -0.948691 2.835405 10.337274 -32.191467 63.111160 -21.260571 44.442388 20.603655 0.000000 0.000000 0.000000 
0.092899 95.043259 1.280743 0.000000 0.000000 0.000000 7.105895 -56.611593 8.850417 -60.779996 29.522359 42.164513 43.363355 -16.648417 1.848868 5.664217 0.319606 -12.066700 -0.099791 -3.635481 -0.907296 0.000000 0.000000 0.000000 5.528397 -56.678392 8.789901 -29.715342 -1.937779 -25.686502 41.312143 3.406727 -6.691476 -17.711936 -2.174283 23.278543 2.662122 2.067198 2.047711 0.000000 0.000000 0.000000 8.703607 -51.106877 9.269707 13.632007 2.985250 -3.978874 2.933119 6.897205 -4.189467 0.135125 -3.096525 1.371613 0.000000 0.000000 0.000000 -3.750131 6.377640 -3.029710 -0.050191 12.629316 -1.243621 -0.847252 23.904166 -3.970461 0.000000 0.000000 0.000000 -4.806077 5.842125 -2.776837 -0.299343 -9.152343 -1.305677 0.633528 -0.843958 -0.825715 -11.328506 6.933620 -42.833332 -25.013672 -37.065254 -22.658038 0.000000 0.000000 0.000000 -4.813741 5.828828 -2.444524 -1.338762 19.447376 0.021684 -6.887471 -1.572355 2.403880 12.199958 -33.396176 63.806466 -22.943741 48.330128 21.915516 0.000000 0.000000 0.000000 
-0.021596 95.165375 1.366405 0.000000 0.000000 0.000000 7.349532 -57.635390 9.045522 -59.782856 28.749789 41.761795 43.224459 -16.432812 2.059947 5.722229 0.561261 -13.277677 -0.504734 -3.531903 -0.931177 0.000000 0.000000 0.000000 5.884751 -57.477715 9.081251 -30.601276 -2.641841 -25.060020 41.536446 3.461195 -6.331957 -18.144888 -2.106427 21.952899 3.317576 2.031424 1.881852 0.000000 0.000000 0.000000 9.334773 -52.570043 9.614103 13.419268 2.886910 -3.873771 3.003669 6.857171 -4.137609 0.437017 -2.992400 1.487410 0.000000 0.000000 0.000000 -3.717693 6.392192 -2.928316 -0.129528 13.378699 -1.792824 -0.225430 22.878566 -4.401805 0.000000 0.000000 0.000000 -4.787157 5.783789 -2.634275 -0.314605 -9.461888 -1.977592 1.075086 -0.476035 -0.932675 -10.254316 7.209469 -41.675359 -25.885293 -39.420170 -24.247489 0.000000 0.000000 0.000000 -4.920532 5.801565 -2.355855 -1.068501 19.080248 -0.280767 -6.572835 -2.414616 2.018683 13.202154 -34.238420 63.263357 -25.026443 52.170645 23.548291 0.000000 0.000000 0.000000 
-0.152380 95.190567 1.691429 0.000000 0.000000 0.000000 8.006462 -58.888163 9.764261 -58.404367 28.320748 41.150466 42.854010 -16.062250 2.322241 5.230018 1.017913 -14.657239 -0.781442 -3.436146 -0.691069 0.000000 0.000000 0.000000 6.610710 -58.783217 9.879852 -31.965453 -3.281626 -24.631230 41.766747 3.764600 -5.933427 -18.239066 -1.655084 20.928297 3.386117 1.968754 1.780395 0.000000 0.000000 0.000000 10.443361 -54.311888 10.542376 13.185538 2.849989 -3.642359 3.001094 6.758582 -4.178907 0.522857 -3.025907 1.387923 0.000000 0.000000 0.000000 -3.746422 6.278697 -2.909422 -0.539449 14.412546 -2.596734 0.542909 22.397360 -5.288120 0.000000 0.000000 0.000000 -4.797790 5.627928 -2.641958 -0.370834 -9.562170 -2.980335 0.920977 -0.169712 -0.585287 -8.684588 7.400593 -40.658689 -26.256372 -41.035336 -25.203099 0.000000 0.000000 0.000000 -5.195384 5.641550 -2.361837 -0.907381 18.813104 -0.541016 -5.901111 -3.088769 1.766441 13.423029 -34.354895 61.432709 -27.035033 55.400682 25.092250 0.000000 0.000000 0.000000 
-0.351667 95.244934 2.025715 0.000000 0.000000 0.000000 9.268848 -60.426827 11.223177 -56.699357 28.463570 40.562656 41.844488 -15.525718 2.498685 4.335389 1.673995 -16.216486 -1.120470 -3.309430 -0.250057 0.000000 0.000000 0.000000 7.930250 -60.564271 11.370919 -33.688194 -3.735976 -24.449738 42.137612 4.429934 -5.559537 -17.649072 -0.702025 20.584670 2.527876 1.853917 1.839427 0.000000 0.000000 0.000000 11.948720 -56.140081 12.045057 12.942433 2.860111 -3.351098 2.844385 6.632877 -4.361151 0.494399 -3.202492 1.251056 0.000000 0.000000 0.000000 -3.900567 6.080078 -3.023046 -1.160989 15.718891 -3.633634 1.522047 22.446215 -6.630888 0.000000 0.000000 0.000000 -4.950150 5.436288 -2.827738 -0.455476 -9.428401 -3.952590 0.309371 0.091001 0.222357 -6.670452 7.507475 -39.962252 -26.167846 -41.748876 -25.487129 0.000000 0.000000 0.000000 -5.653335 5.379873 -2.514662 -0.828918 18.500701 -0.845694 -5.251904 -3.535265 1.662684 13.163620 -33.856913 58.832852 -28.254753 57.591663 25.928361 0.000000 0.000000 0.000000 
